<svg xmlns="http://www.w3.org/2000/svg" width="720" height="480" viewBox="0 0 720 480" role="img" aria-labelledby="title desc">
  <title id="title">Wireless Headset Air</title>
  <desc id="desc">Kabelloses Headset mit zwei Ohrhoerern und Ladecase.</desc>
  <rect width="720" height="480" fill="#f5f7fb"/>
  <rect x="230" y="250" width="260" height="100" rx="34" fill="#dfe6ef"/>
  <rect x="270" y="280" width="180" height="18" rx="9" fill="#aab7c6"/>
  <path d="M250 130c0-28 22-50 50-50s50 22 50 50v98c0 18-14 32-32 32s-32-14-32-32v-78h-36z" fill="#172033"/>
  <path d="M370 130c0-28 22-50 50-50s50 22 50 50v98c0 18-14 32-32 32s-32-14-32-32v-78h-36z" fill="#2f9e8f"/>
  <circle cx="318" cy="128" r="15" fill="#ffffff" opacity="0.35"/>
  <circle cx="438" cy="128" r="15" fill="#ffffff" opacity="0.35"/>
</svg>
